<?xml version="1.0" encoding="utf-8"?>
<!-- Generator: Adobe Illustrator 26.0.2, SVG Export Plug-In . SVG Version: 6.00 Build 0)  -->
<svg version="1.1" id="Layer_1" xmlns="http://www.w3.org/2000/svg" xmlns:xlink="http://www.w3.org/1999/xlink" x="0px" y="0px"
	 viewBox="0 0 288 371.8" style="enable-background:new 0 0 288 371.8;" xml:space="preserve">
<style type="text/css">
	.st0{fill:#202020;}
	.st1{fill:none;stroke:#231F20;stroke-width:4;stroke-linecap:round;stroke-miterlimit:10;}
	.st2{fill:none;stroke:#202020;stroke-width:2.5;stroke-linecap:round;stroke-linejoin:bevel;stroke-miterlimit:10;}
	.st3{fill:none;stroke:#202020;stroke-width:2.5;stroke-linecap:round;stroke-linejoin:round;stroke-miterlimit:10;}
</style>
<g>
	<g>
		<path class="st0" d="M236.3,113.4l-0.2-1.1c-1-6.8-3.4-22.7-16.9-23.4c-7.3-0.4-13.3,5.3-17.6,9.5l-3.1,3
			c-10.5,10.2-28.7,30.9-32.1,55.4c-2,14.4,3.9,27.8,15.2,35.5l-37.3,92.5L79.1,123c-1.2-3-4.6-4.4-7.5-3.2c-3,1.2-4.4,4.6-3.2,7.5
			l66.9,166.2h17.9l38.8-96.3c0.4,0.1,0.8,0.3,1.2,0.4c2.5,0.6,5,0.9,7.4,0.9c5.8,0,11.5-1.7,16.8-5.1c9.9-6.3,17.9-18.5,20.4-31
			C241.2,146,238.7,129.4,236.3,113.4z M226.5,160.2c-1.9,9.4-8,18.9-15.2,23.5c-4.8,3-9.8,3.9-14.9,2.7l23.8-59
			c1.2-3-0.2-6.4-3.2-7.5c-3-1.2-6.3,0.2-7.5,3.2l-23.4,58c-6.3-5.4-9.4-13.8-8.2-22.7c2.9-21,19.2-39.5,28.7-48.7l3.2-3
			c2.2-2.2,6.4-6.2,8.7-6.2c0,0,0.1,0,0.1,0c4.1,0.2,5.6,9.9,6.1,13.6l0.2,1.1C227.1,130.2,229.4,145.7,226.5,160.2z"/>
	</g>
	<g>
		<path class="st0" d="M154.6,371.8c-73.5,0-133.4-59.8-133.4-133.4v-26c0-2.6,2.1-4.6,4.6-4.6s4.6,2.1,4.6,4.6v26
			c0,68.4,55.7,124.1,124.1,124.1c68.4,0,124.1-55.7,124.1-124.1V133.4C278.7,65,223,9.3,154.6,9.3C86.2,9.3,30.5,65,30.5,133.4
			v36.6c0,2.6-2.1,4.6-4.6,4.6s-4.6-2.1-4.6-4.6v-36.6C21.2,59.8,81.1,0,154.6,0C228.2,0,288,59.8,288,133.4v105.1
			C288,312,228.2,371.8,154.6,371.8z"/>
	</g>
	<g>
		<path class="st0" d="M25.9,217.1C11.6,217.1,0,205.5,0,191.2c0-14.3,11.6-25.9,25.9-25.9s25.9,11.6,25.9,25.9
			C51.8,205.5,40.2,217.1,25.9,217.1z M25.9,174.6c-9.2,0-16.6,7.4-16.6,16.6s7.4,16.6,16.6,16.6c9.2,0,16.6-7.4,16.6-16.6
			S35,174.6,25.9,174.6z"/>
	</g>
</g>
</svg>
