<?xml version="1.0" encoding="utf-8"?>
<!-- Generator: Adobe Illustrator 26.0.2, SVG Export Plug-In . SVG Version: 6.00 Build 0)  -->
<svg version="1.1" id="Layer_1" xmlns="http://www.w3.org/2000/svg" xmlns:xlink="http://www.w3.org/1999/xlink" x="0px" y="0px"
	 viewBox="0 0 266.4 392.5" style="enable-background:new 0 0 266.4 392.5;" xml:space="preserve">
<style type="text/css">
	.st0{fill:#202020;}
	.st1{fill:none;stroke:#231F20;stroke-width:4;stroke-linecap:round;stroke-miterlimit:10;}
	.st2{fill:none;stroke:#202020;stroke-width:2.5;stroke-linecap:round;stroke-linejoin:bevel;stroke-miterlimit:10;}
	.st3{fill:none;stroke:#202020;stroke-width:2.5;stroke-linecap:round;stroke-linejoin:round;stroke-miterlimit:10;}
</style>
<g>
	<g>
		<path class="st0" d="M112.3,369.6c-0.2,0-0.5,0-0.8-0.1C46.9,358.9,0,303.7,0,238.1V133.2C0,59.7,59.7,0,133.2,0
			s133.2,59.7,133.2,133.2v26c0,2.6-2.1,4.6-4.6,4.6s-4.6-2.1-4.6-4.6v-26c0-68.3-55.6-123.9-123.9-123.9S9.3,64.9,9.3,133.2v104.9
			c0,61,43.6,112.4,103.7,122.3c2.5,0.4,4.2,2.8,3.8,5.3C116.4,368,114.5,369.6,112.3,369.6z"/>
	</g>
	<g>
		<path class="st0" d="M154.1,369.6c-2.2,0-4.2-1.6-4.6-3.9c-0.4-2.5,1.3-4.9,3.8-5.3c60.1-9.8,103.7-61.3,103.7-122.3v-36.5
			c0-2.6,2.1-4.6,4.6-4.6s4.6,2.1,4.6,4.6v36.5c0,65.6-46.9,120.8-111.5,131.4C154.6,369.6,154.4,369.6,154.1,369.6z"/>
	</g>
	<g>
		<path class="st0" d="M133.2,392.5c-14.3,0-25.8-11.6-25.8-25.8s11.6-25.8,25.8-25.8c14.3,0,25.8,11.6,25.8,25.8
			S147.4,392.5,133.2,392.5z M133.2,350.1c-9.1,0-16.6,7.4-16.6,16.6c0,9.1,7.4,16.6,16.6,16.6c9.1,0,16.6-7.4,16.6-16.6
			C149.8,357.5,142.3,350.1,133.2,350.1z"/>
	</g>
	<g>
		<path class="st0" d="M261.7,206.2c-2.6,0-4.6-2.1-4.6-4.6v-42.4c0-2.6,2.1-4.6,4.6-4.6s4.6,2.1,4.6,4.6v42.4
			C266.4,204.1,264.3,206.2,261.7,206.2z"/>
	</g>
	<g>
		<path class="st0" d="M163.9,171.2h-30.7c-3.2,0-5.8-2.6-5.8-5.8s2.6-5.8,5.8-5.8h24.9v-24.9c0-3.2,2.6-5.8,5.8-5.8
			s5.8,2.6,5.8,5.8v30.7C169.7,168.6,167.1,171.2,163.9,171.2z"/>
	</g>
	<g>
		<path class="st0" d="M47.4,190.6c-1.9,0-3.8-0.9-4.9-2.7c-14.1-21.8-11-50.9,7.3-69.3c10.5-10.5,24.3-16.3,39.1-16.3
			c14.8,0,28.7,5.8,39.1,16.3l9.3,9.4l30.8,33.5c2.2,2.4,2,6-0.3,8.2c-2.3,2.2-6,2-8.2-0.3L129,136l-9.2-9.2
			c-8.3-8.3-19.2-12.9-30.9-12.9c0,0,0,0,0,0c-11.6,0-22.6,4.6-30.9,12.9c-14.5,14.5-16.9,37.6-5.8,54.9c1.7,2.7,1,6.3-1.7,8
			C49.5,190.3,48.4,190.6,47.4,190.6z"/>
	</g>
	<g>
		<path class="st0" d="M187.9,223.5c-1.5,0-3-0.6-4.1-1.7c-2.3-2.3-2.3-5.9,0-8.2l24.5-24.6c17-17.1,17-45,0-62.1
			c-14.6-14.6-37.6-17-54.8-5.7c-2.7,1.8-6.3,1-8-1.7c-1.8-2.7-1-6.3,1.7-8c21.8-14.3,51-11.3,69.4,7.2c21.5,21.6,21.5,56.8,0,78.4
			L192,221.8C190.9,222.9,189.4,223.5,187.9,223.5z"/>
	</g>
	<g>
		<path class="st0" d="M133.1,275.9c-3.3,0-6.3-1.3-8.6-3.6l-66.2-66.6c-2.3-2.3-2.3-5.9,0-8.2c2.3-2.3,5.9-2.3,8.2,0l66.2,66.6
			l4.9,4.1l-4.1-4.1l25.6-25.6c2.3-2.2,5.9-2.2,8.2,0c2.3,2.3,2.2,5.9,0,8.2l-25.5,25.6C139.5,274.6,136.3,275.9,133.1,275.9z"/>
	</g>
	<g>
		<path class="st0" d="M209.7,232.9H179c-3.2,0-5.8-2.6-5.8-5.8v-30.7c0-3.2,2.6-5.8,5.8-5.8s5.8,2.6,5.8,5.8v24.9h24.9
			c3.2,0,5.8,2.6,5.8,5.8S212.9,232.9,209.7,232.9z"/>
	</g>
	<g>
		<path class="st0" d="M62.4,238.1c-3.2,0-5.8-2.6-5.8-5.8v-30.7c0-3.2,2.6-5.8,5.8-5.8h30.7c3.2,0,5.8,2.6,5.8,5.8
			s-2.6,5.8-5.8,5.8H68.2v24.9C68.2,235.5,65.6,238.1,62.4,238.1z"/>
	</g>
</g>
</svg>
