<?xml version="1.0" encoding="utf-8"?>
<!-- Generator: Adobe Illustrator 26.0.2, SVG Export Plug-In . SVG Version: 6.00 Build 0)  -->
<svg version="1.1" id="Layer_1" xmlns="http://www.w3.org/2000/svg" xmlns:xlink="http://www.w3.org/1999/xlink" x="0px" y="0px"
	 viewBox="0 0 288 371.8" style="enable-background:new 0 0 288 371.8;" xml:space="preserve">
<style type="text/css">
	.st0{fill:#202020;}
	.st1{fill:none;stroke:#231F20;stroke-width:4;stroke-linecap:round;stroke-miterlimit:10;}
	.st2{fill:none;stroke:#202020;stroke-width:2.5;stroke-linecap:round;stroke-linejoin:bevel;stroke-miterlimit:10;}
	.st3{fill:none;stroke:#202020;stroke-width:2.5;stroke-linecap:round;stroke-linejoin:round;stroke-miterlimit:10;}
</style>
<g>
	<g>
		<g>
			<path class="st0" d="M190.2,249.1c-3.2,0-5.8-2.6-5.8-5.8c0-26.3-21.4-47.6-47.6-47.6S89.1,217,89.1,243.3c0,3.2-2.6,5.8-5.8,5.8
				s-5.8-2.6-5.8-5.8c0-32.7,26.6-59.2,59.2-59.2c32.7,0,59.2,26.6,59.2,59.2C196,246.5,193.4,249.1,190.2,249.1z"/>
		</g>
		<g>
			<path class="st0" d="M98.9,208.1c-1.5,0-3-0.6-4.1-1.7c-6.1-6.3-59.6-61.9-54.5-90.6c1.2-6.4,5-11.4,11.1-14.3
				c6.1-2.9,12.7-2.9,18.9,0.1c27.5,13.3,44.8,84.9,46.7,93c0.7,3.1-1.2,6.2-4.3,7c-3.1,0.7-6.2-1.2-7-4.3
				c-4.8-20.5-21.3-75.9-40.5-85.2c-3.1-1.5-5.9-1.5-8.9-0.1c-2.8,1.3-4.2,3.1-4.7,5.8c-3.1,17.2,29.9,58.5,51.4,80.4
				c2.2,2.3,2.2,6-0.1,8.2C101.8,207.5,100.3,208.1,98.9,208.1z"/>
		</g>
		<g>
			<path class="st0" d="M173.3,205.2c-1.5,0-2.9-0.6-4.1-1.7c-2.3-2.2-2.3-5.9-0.1-8.2c21.5-22,54.4-63.3,51.4-80.4
				c-0.5-2.7-1.9-4.5-4.7-5.8c-3-1.4-5.8-1.4-8.9,0.1c-19.2,9.3-35.7,64.6-40.5,85.2c-0.7,3.1-3.9,5.1-7,4.3c-3.1-0.7-5.1-3.8-4.3-7
				c1.9-8.1,19.2-79.7,46.7-93c6.2-3,12.7-3.1,18.9-0.1c6.1,2.9,10,7.8,11.1,14.3c5.1,28.7-48.4,84.3-54.5,90.6
				C176.3,204.6,174.8,205.2,173.3,205.2z"/>
		</g>
		<g>
			<path class="st0" d="M136.7,284.3c-2.1,0-4.2-0.9-5.8-2.4l-27.2-27.4c-9.2-9.3-9.2-24.5,0-33.8c4.5-4.5,10.5-7,16.9-7
				c6,0,11.7,2.2,16.2,6.3c4.4-4.1,10.1-6.3,16.1-6.3c0,0,0,0,0,0c6.4,0,12.4,2.5,16.9,7c9.3,9.3,9.3,24.5,0,33.8L142.5,282
				C141,283.5,138.9,284.3,136.7,284.3z M120.6,225.3c-3.3,0-6.3,1.3-8.6,3.6c-4.8,4.8-4.8,12.6,0,17.4l24.7,24.9l24.8-24.9
				c4.8-4.8,4.8-12.6,0-17.4c-2.3-2.3-5.4-3.6-8.6-3.6l0,0c-3.3,0-6.3,1.3-8.6,3.6l-3.3,3.4l-8.3,0l-3.4-3.4
				C127,226.6,123.9,225.3,120.6,225.3z"/>
		</g>
	</g>
	<g>
		<path class="st0" d="M133.4,371.8C59.8,371.8,0,312,0,238.5V133.4C0,59.8,59.8,0,133.4,0c73.5,0,133.4,59.8,133.4,133.4v26
			c0,2.6-2.1,4.6-4.6,4.6c-2.6,0-4.6-2.1-4.6-4.6v-26C257.5,65,201.8,9.3,133.4,9.3C65,9.3,9.3,65,9.3,133.4v105.1
			c0,68.4,55.7,124.1,124.1,124.1c68.4,0,124.1-55.7,124.1-124.1v-36.6c0-2.6,2.1-4.6,4.6-4.6c2.6,0,4.6,2.1,4.6,4.6v36.6
			C266.8,312,206.9,371.8,133.4,371.8z"/>
	</g>
	<g>
		<path class="st0" d="M262.1,206.5c-14.3,0-25.9-11.6-25.9-25.9c0-14.3,11.6-25.9,25.9-25.9c14.3,0,25.9,11.6,25.9,25.9
			C288,194.9,276.4,206.5,262.1,206.5z M262.1,164c-9.2,0-16.6,7.4-16.6,16.6c0,9.2,7.4,16.6,16.6,16.6s16.6-7.4,16.6-16.6
			C278.7,171.5,271.3,164,262.1,164z"/>
	</g>
</g>
</svg>
