<?xml version="1.0" encoding="utf-8"?>
<!-- Generator: Adobe Illustrator 26.0.2, SVG Export Plug-In . SVG Version: 6.00 Build 0)  -->
<svg version="1.1" id="Layer_1" xmlns="http://www.w3.org/2000/svg" xmlns:xlink="http://www.w3.org/1999/xlink" x="0px" y="0px"
	 viewBox="0 0 266.8 371.8" style="enable-background:new 0 0 266.8 371.8;" xml:space="preserve">
<style type="text/css">
	.st0{fill:#202020;}
	.st1{fill:none;stroke:#231F20;stroke-width:4;stroke-linecap:round;stroke-miterlimit:10;}
	.st2{fill:none;stroke:#202020;stroke-width:2.5;stroke-linecap:round;stroke-linejoin:bevel;stroke-miterlimit:10;}
	.st3{fill:none;stroke:#202020;stroke-width:2.5;stroke-linecap:round;stroke-linejoin:round;stroke-miterlimit:10;}
</style>
<g>
	<g>
		<g>
			<path class="st0" d="M133.4,307.6c-22.3,0-40.4-18.1-40.4-40.3V101.6l5.8-5.8h69.1l5.8,5.8v165.6
				C173.7,289.5,155.6,307.6,133.4,307.6z M104.6,107.4v159.8c0,15.9,12.9,28.7,28.8,28.7s28.8-12.9,28.8-28.7V107.4H104.6z"/>
		</g>
		<g>
			<path class="st0" d="M172,107.4H94.8c-8.4,0-15.3-6.9-15.3-15.3v-1.2c0-8.4,6.9-15.3,15.3-15.3H172c8.4,0,15.3,6.9,15.3,15.3v1.2
				C187.3,100.5,180.4,107.4,172,107.4z M94.8,87.2c-2,0-3.7,1.7-3.7,3.7v1.2c0,2,1.7,3.7,3.7,3.7H172c2,0,3.7-1.7,3.7-3.7v-1.2
				c0-2-1.7-3.7-3.7-3.7H94.8z"/>
		</g>
		<g>
			<circle class="st0" cx="117.1" cy="191.3" r="5.9"/>
		</g>
		<g>
			<circle class="st0" cx="135" cy="266.9" r="5.9"/>
		</g>
		<g>
			<circle class="st0" cx="146.7" cy="238.6" r="8.9"/>
		</g>
		<g>
			<rect x="93" y="139.9" class="st0" width="80.7" height="11.6"/>
		</g>
	</g>
	<g>
		<path class="st0" d="M43.6,335.3c-0.9,0-1.7-0.2-2.5-0.7c-2.2-1.4-2.8-4.3-1.4-6.4l173.1-270c1.4-2.2,4.3-2.8,6.4-1.4
			c2.2,1.4,2.8,4.3,1.4,6.4l-173.1,270C46.6,334.6,45.1,335.3,43.6,335.3z"/>
	</g>
	<g>
		<path class="st0" d="M133.4,371.8C59.8,371.8,0,312,0,238.5V133.4C0,59.8,59.8,0,133.4,0c29.2,0,57,9.3,80.2,26.8
			c2,1.5,2.5,4.5,0.9,6.5c-1.5,2-4.5,2.5-6.5,0.9c-21.6-16.3-47.5-24.9-74.6-24.9C65,9.3,9.3,65,9.3,133.4v105.1
			c0,68.4,55.7,124.1,124.1,124.1s124.1-55.7,124.1-124.1V133.4c0-25.2-7.5-49.4-21.7-70.1c-1.5-2.1-0.9-5,1.2-6.5
			c2.1-1.4,5-0.9,6.4,1.2c15.3,22.2,23.3,48.3,23.3,75.4v105.1C266.8,312,206.9,371.8,133.4,371.8z"/>
	</g>
	<g>
		<path class="st0" d="M228.1,68.7c-14.3,0-25.9-11.6-25.9-25.9s11.6-25.9,25.9-25.9c14.3,0,25.9,11.6,25.9,25.9
			S242.4,68.7,228.1,68.7z M228.1,26.2c-9.2,0-16.6,7.4-16.6,16.6c0,9.2,7.4,16.6,16.6,16.6s16.6-7.4,16.6-16.6
			C244.7,33.6,237.3,26.2,228.1,26.2z"/>
	</g>
</g>
</svg>
